<svg width="161.62" height="127.53" id="Layer_1" data-name="Layer 1" xmlns="http://www.w3.org/2000/svg" viewBox="0 0 401.62 367.53"><defs><style>.cls-1{fill:#f44336;}.cls-2,.cls-4{font-size:229.46px;}.cls-2,.cls-3{fill:#fff;}.cls-2,.cls-3,.cls-4{font-family:Arial;font-weight:700;}.cls-3{font-size:218.84px;}</style></defs><title>logo</title><path class="cls-1" d="M507,639.33s-131.44,9.61-175.15,6.58-172.59-30.65-172.59-30.65a20.21,20.21,0,0,1-13.77-6.79,19.59,19.59,0,0,1-4.93-14.36l6.82-98.57L154.17,397A19.59,19.59,0,0,1,161,383.41a20.21,20.21,0,0,1,14.58-4.82s130.16-10.24,173.46-7.29c44.17,3,174.28,31.36,174.28,31.36a20.21,20.21,0,0,1,13.77,6.79A19.59,19.59,0,0,1,542,423.81l-6.82,98.57L528.39,621a19.59,19.59,0,0,1-6.86,13.55A20.21,20.21,0,0,1,507,639.33Z" transform="translate(-140.47 -325.74)"/><text class="cls-2" transform="matrix(1, 0, 0, -1, 196.56, 86.38)">b</text><text class="cls-3" transform="translate(196.56 285.14)">I</text><text class="cls-4" transform="translate(54.09 255.23)">m</text></svg>
